<?xml version="1.0" standalone="no"?>
<!DOCTYPE svg PUBLIC "-//W3C//DTD SVG 1.1//EN" "http://www.w3.org/Graphics/SVG/1.1/DTD/svg11.dtd" >
<svg xmlns="http://www.w3.org/2000/svg">
<metadata>Generated by IcoMoon</metadata>
<defs>
<font id="icomoon" horiz-adv-x="1024">
<font-face units-per-em="1024" ascent="960" descent="-64" />
<missing-glyph horiz-adv-x="1024" />
<glyph unicode="&#x20;" horiz-adv-x="512" d="" />
<glyph unicode="&#xe900;" glyph-name="edit" horiz-adv-x="1028" d="M638.914 787.868l208.995-208.995-529.044-529.095-208.893 208.995 528.941 529.095zM1006.571 838.305l-93.212 93.212c-36.041 36.041-94.498 36.041-130.641 0l-89.305-89.305 208.995-208.995 104.163 104.163c27.917 27.917 27.917 72.956 0 100.924v0zM0.566-35.003c-3.805-17.121 11.671-32.442 28.791-28.277l232.903 56.452-208.893 208.995-52.802-237.17z" />
<glyph unicode="&#xe901;" glyph-name="plus" d="M1024 499.2v-102.4h-1024v102.4h1024zM563.2 960v-1024h-102.4v1024h102.4z" />
<glyph unicode="&#xe902;" glyph-name="check" horiz-adv-x="1210" d="M1022.883 960l-583.121-623.43-252.556 270.15-187.206-200.332 439.855-470.388 770.327 823.761-187.299 200.239z" />
<glyph unicode="&#xe903;" glyph-name="arrows" horiz-adv-x="1097" d="M47.031 620.398h754.103v-135.826c0-6.071 2.194-11.41 6.729-15.872 4.462-4.462 9.801-6.729 15.945-6.729 6.583 0 11.995 2.121 16.238 6.363l226.45 226.45c4.242 4.242 6.363 9.655 6.363 16.311 0 6.583-2.121 11.995-6.437 16.238l-225.646 225.719c-5.778 4.535-11.41 6.949-17.042 6.949-6.583 0-12.069-2.121-16.238-6.363-4.242-4.242-6.363-9.655-6.363-16.311v-135.826h-754.103c-6.144 0-11.483-2.194-15.872-6.729-4.535-4.462-6.802-9.728-6.802-15.872v-135.826c0-6.144 2.267-11.483 6.729-15.945s9.801-6.729 15.945-6.729v0zM1050.112 275.529h-754.103v135.899c0 6.144-2.267 11.483-6.729 15.872-4.462 4.462-9.728 6.729-15.872 6.729-6.583 0-11.995-2.121-16.311-6.363l-226.377-226.377c-4.242-4.315-6.363-9.655-6.363-16.311 0-6.144 2.121-11.337 6.363-15.579l225.719-226.45c5.632-4.608 11.337-6.949 16.969-6.949 6.144 0 11.483 2.194 15.945 6.729 4.462 4.462 6.729 9.801 6.729 15.945v135.826h754.103c6.071 0 11.41 2.267 15.872 6.729s6.729 9.801 6.729 15.945v135.753c0 6.071-2.267 11.41-6.729 15.872-4.535 4.535-9.801 6.729-15.945 6.729v0z" />
<glyph unicode="&#xe904;" glyph-name="trash" horiz-adv-x="805" d="M804.571 890.368v-99.474h-804.571v99.474h226.597c36.937 0 66.853 31.159 66.853 69.632h217.746c0-38.473 29.915-69.632 66.853-69.632h226.523zM761.051 716.215v-780.215h-717.531v780.215h717.531zM262.29 561.225c0 20.553-16.018 37.303-35.767 37.303s-35.84-16.75-35.84-37.303v-472.576c0-20.626 16.018-37.303 35.84-37.303 19.749 0 35.767 16.677 35.767 37.303v472.576zM438.053 561.225c0 20.553-16.018 37.303-35.767 37.303-19.822 0-35.767-16.75-35.767-37.303v-472.576c0-20.626 16.018-37.303 35.767-37.303s35.767 16.677 35.767 37.303v472.576zM613.888 561.225c0 20.553-16.018 37.303-35.84 37.303s-35.767-16.75-35.767-37.303v-472.576c0-20.626 16.018-37.303 35.767-37.303s35.84 16.677 35.84 37.303v472.576z" />
<glyph unicode="&#xe905;" glyph-name="plus2" d="M1024 499.2v-102.4h-1024v102.4h1024zM563.2 960v-1024h-102.4v1024h102.4z" />
<glyph unicode="&#xe906;" glyph-name="edit_2" d="M953.702 741.888c25.037 25.037 25.037 65.434 0 90.47l-83.558 83.558c-32.307 32.307-84.736 32.307-117.094 0l-80.026-80.026 187.341-187.341 93.338 93.338zM624.234 787.162l187.353-187.353-474.158-474.158-187.353 187.353 474.158 474.158zM99.379 262.298l-47.309-212.634c-3.43-15.36 10.445-29.082 25.805-25.344l208.742 50.637-187.238 187.341zM941.005 51.2c-182.17-31.693-202.342-8.038-204.032-5.325-4.71 7.68 16.282 35.533 24.218 45.978 14.285 18.944 26.675 35.277 14.95 50.432-12.493 16.026-28.109 16.333-166.912-41.626-355.533-148.582-432.282-102.144-435.661-99.942-6.963 6.298-17.664 6.246-24.525-0.358-7.117-6.912-7.322-18.176-0.461-25.344 5.325-5.53 23.757-19.2 75.264-19.2 65.638 0 184.934 22.221 399.104 111.77 53.606 22.426 86.374 34.816 106.086 41.37-17.869-23.91-39.117-54.938-22.733-81.715 14.541-23.91 54.426-43.827 240.845-11.366 9.728 1.69 16.23 11.008 14.541 20.736-1.587 9.779-10.496 16.333-20.685 14.592z" />
<glyph unicode="&#xe907;" glyph-name="add_employee" horiz-adv-x="846" d="M233.294 636.861c9.528-78.269 76.8-159.477 137.928-159.477 70.211 0 136.949 85.259 147.322 159.477 3.918 2.76 10.507 9.661 12.867 25.021 0 0 14.915 53.649-4.808 47.994 6.856 20.614 29.83 101.242-14.648 151.418 0 0-20.747 28.405-71.546 43.453-1.736 1.38-3.517 2.849-5.521 4.319 0 0 1.024-1.291 2.76-3.473-2.894 0.846-5.966 1.603-9.038 2.182-2.671 2.894-5.877 5.832-9.216 9.038 0 0 3.072-3.206 6.723-8.326-1.514 0.267-2.671 0.579-4.096 0.89-2.226 3.517-5.12 7.034-8.637 10.685 0 0 1.514-2.76 3.517-7.168-9.35 6.856-28.093 22.662-28.093 40.381 0 0-11.843-5.432-18.566-15.494 2.582 8.326 7.168 15.939 14.47 22.216 0 0-7.747-3.962-14.781-12.6-5.565-3.072-18.165-11.709-22.394-27.069l-4.096 2.093c2.048 4.363 4.808 8.904 8.504 13.579 0 0-5.432-4.986-10.24-12.733l-8.014 4.141c2.315 4.541 5.521 9.216 9.795 13.757 0 0-4.23-3.384-8.904-9.082 1.247 5.209 0.935 11.353-15.405-6.634 0 0-73.906-32.056-95.366-98.616 0 0-12.6-30.008 4.096-118.205-23.73 11.309-7.48-46.614-7.48-46.614 2.36-15.494 8.904-22.394 12.867-25.155zM367.75 944.506c-3.695-4.986-6.767-11.13-8.192-18.877l-2.627 1.024c2.003 6.411 5.387 12.555 10.819 17.853zM357.465 145.697c0 145.898 118.25 264.147 264.147 264.147 14.247 0 28.138-1.425 41.761-3.606-39.046 32.679-118.517 57.745-118.517 57.745-62.776 22.216-63.176 44.299-63.176 44.299-123.637-243.4-217.222-0.712-217.222-0.712-8.637-32.768-135.747-71.413-135.747-71.413-36.998-14.291-52.803-35.706-52.803-35.706-54.851-81.341-61.306-262.723-61.306-262.723 0.757-41.272 18.566-45.635 18.566-45.635 126.264-56.32 324.296-66.426 324.296-66.426 9.928-0.223 19.322 0.134 28.939 0.267-18.343 35.929-28.939 76.577-28.939 119.763zM621.613 355.395c-115.801 0-209.697-93.896-209.697-209.697s93.896-209.697 209.697-209.697 209.697 93.896 209.697 209.697c0 115.801-93.896 209.697-209.697 209.697zM758.739 105.227h-96.612v-96.612h-80.941v96.612h-96.612v80.941h96.612v96.612h80.941v-96.612h96.612v-80.941z" />
<glyph unicode="&#xe908;" glyph-name="arrow" horiz-adv-x="1638" d="M1638.4 960l-819.2-1024-819.2 1024h1638.4z" />
<glyph unicode="&#xe909;" glyph-name="download" horiz-adv-x="843" d="M843.095 598.566h-240.83v361.434h-361.434v-361.434h-240.83l421.736-421.359 421.359 421.359zM0 56.603v-120.603h843.095v120.603h-843.095z" />
<glyph unicode="&#xe90a;" glyph-name="check2" horiz-adv-x="1463" d="M1225.062 960l-593.757-574.415-393.671 386.682-237.633-224.63 631.467-611.637 831.39 799.208-237.796 224.792z" />
<glyph unicode="&#xe90b;" glyph-name="plus-sm" d="M512 960c-282.77 0-512-229.23-512-512s229.23-512 512-512c282.77 0 512 229.23 512 512s-229.23 512-512 512zM768 374.857h-182.857v-182.857h-146.286v182.857h-182.857v146.286h182.857v182.857h146.286v-182.857h182.857v-146.286z" />
<glyph unicode="&#xe90c;" glyph-name="docu" horiz-adv-x="946" d="M690.293 447.891c-141.341 0-255.946-114.605-255.946-255.946s114.605-255.946 255.946-255.946c141.341 0 255.946 114.605 255.946 255.946s-114.605 255.946-255.946 255.946zM857.662 142.55h-117.92v-117.92h-98.792v117.92h-117.92v98.792h117.92v117.92h98.792v-117.92h117.92v-98.792zM652.417 960h-598.076c-29.996 0-54.341-24.345-54.341-54.341v-896.027c0-29.996 24.345-54.341 54.341-54.341h432.988c-66.676 57.221-109.062 141.938-109.062 236.655 0 172.315 139.656 311.971 311.971 311.971 44.56 0 86.837-9.51 125.201-26.301v319.361l-163.023 163.023zM313.221 341.003h-131.94c-27.17 0-49.233 22.062-49.233 49.233s22.062 49.233 49.233 49.233h131.94c27.17 0 49.233-22.062 49.233-49.233s-22.008-49.233-49.233-49.233zM473.69 496.363h-294.962c-27.17 0-49.233 22.062-49.233 49.233s22.062 49.233 49.233 49.233h294.962c27.17 0 49.233-22.062 49.233-49.233s-22.008-49.233-49.233-49.233zM636.712 652.594h-457.985c-27.17 0-49.233 22.062-49.233 49.233s22.062 49.287 49.233 49.287h457.985c27.17 0 49.233-22.062 49.233-49.233s-22.008-49.287-49.233-49.287z" />
<glyph unicode="&#xe90d;" glyph-name="docu2" horiz-adv-x="700" d="M692.133 765.281l-187.073 187.142c-4.87 4.847-11.446 7.578-18.295 7.578h-460.914c-14.268 0-25.85-11.583-25.85-25.85v-972.299c0-14.268 11.583-25.85 25.85-25.85h648.010c14.268 0 25.85 11.583 25.85 25.85v785.158c-0.023 6.849-2.731 13.426-7.578 18.273v0zM611.442 772.858h-98.85v98.873l98.85-98.873zM51.701-12.299v920.599h409.213v-161.291c0-14.29 11.583-25.85 25.85-25.85h161.246v-733.457h-596.309zM565.84 635.893h-269.995c-14.29 0-25.85-11.583-25.85-25.85 0-14.29 11.56-25.85 25.85-25.85h269.995c14.268 0 25.85 11.56 25.85 25.85 0 14.268-11.583 25.85-25.85 25.85v0zM187.847 635.893h-28.149v28.171c0 14.268-11.583 25.85-25.85 25.85-14.29 0-25.85-11.583-25.85-25.85v-54.022c0-14.29 11.56-25.85 25.85-25.85h53.999c14.29 0 25.85 11.56 25.85 25.85 0 14.268-11.56 25.85-25.85 25.85v0zM565.84 473.85h-269.995c-14.29 0-25.85-11.583-25.85-25.85 0-14.29 11.56-25.85 25.85-25.85h269.995c14.268 0 25.85 11.56 25.85 25.85s-11.583 25.85-25.85 25.85v0zM187.847 473.85h-28.149v28.149c0 14.29-11.583 25.85-25.85 25.85-14.29 0-25.85-11.56-25.85-25.85v-53.999c0-14.29 11.56-25.85 25.85-25.85h53.999c14.29 0 25.85 11.56 25.85 25.85s-11.56 25.85-25.85 25.85v0zM565.84 311.808h-269.995c-14.29 0-25.85-11.56-25.85-25.85 0-14.268 11.56-25.85 25.85-25.85h269.995c14.268 0 25.85 11.583 25.85 25.85 0 14.29-11.583 25.85-25.85 25.85v0zM187.847 311.808h-28.149v28.171c0 14.268-11.583 25.85-25.85 25.85-14.29 0-25.85-11.583-25.85-25.85v-54.022c0-14.268 11.56-25.85 25.85-25.85h53.999c14.29 0 25.85 11.583 25.85 25.85 0 14.29-11.56 25.85-25.85 25.85v0zM565.84 149.766h-269.995c-14.29 0-25.85-11.583-25.85-25.85 0-14.29 11.56-25.85 25.85-25.85h269.995c14.268 0 25.85 11.56 25.85 25.85 0 14.268-11.583 25.85-25.85 25.85v0zM187.847 149.766h-28.149v28.171c0 14.268-11.583 25.85-25.85 25.85-14.29 0-25.85-11.583-25.85-25.85v-54.022c0-14.29 11.56-25.85 25.85-25.85h53.999c14.29 0 25.85 11.56 25.85 25.85 0 14.268-11.56 25.85-25.85 25.85v0z" />
<glyph unicode="&#xe90e;" glyph-name="error" d="M1005.201 678.742l-262.459 262.539c-11.839 11.839-28.078 18.719-45.276 18.719h-370.931c-17.199 0-33.437-6.879-45.276-18.719l-262.539-262.539c-11.839-11.839-18.719-28.078-18.719-45.276v-370.931c0-17.199 6.879-33.437 18.719-45.276l262.539-262.459c11.839-11.919 28.078-18.799 45.276-18.799h370.931c17.199 0 33.437 6.879 45.276 18.799l262.459 262.459c11.919 11.839 18.799 28.078 18.799 45.276v370.931c0 17.199-6.879 33.437-18.799 45.276v0zM511.8 64.15c-35.277 0-63.675 28.718-63.675 64.075 0 35.277 28.398 63.675 63.675 63.675 35.357 0 64.075-28.398 64.075-63.675 0-35.357-28.718-64.075-64.075-64.075v0zM575.875 384.125c0-35.357-28.718-64.075-64.075-64.075-35.277 0-63.675 28.718-63.675 64.075v384.050c0 35.277 28.398 63.675 63.675 63.675 35.357 0 64.075-28.398 64.075-63.675v-384.050z" />
<glyph unicode="&#xe90f;" glyph-name="person" horiz-adv-x="783" d="M239.667 605.867c10.442-85.777 84.166-174.773 151.158-174.773 76.945 0 150.085 93.437 161.453 174.773 4.294 3.025 11.515 10.588 14.101 27.421 0 0 16.345 58.794-5.27 52.598 7.514 22.591 32.691 110.953-16.053 165.942 0 0-22.737 31.129-78.409 47.621-1.903 1.513-3.855 3.123-6.050 4.733 0 0 1.122-1.415 3.025-3.806-3.171 0.927-6.538 1.757-9.905 2.391-2.928 3.171-6.441 6.392-10.1 9.905 0 0 3.367-3.513 7.368-9.124-1.659 0.293-2.928 0.634-4.489 0.976-2.44 3.855-5.611 7.709-9.466 11.71 0 0 1.659-3.025 3.855-7.856-10.246 7.514-30.788 24.835-30.788 44.254 0 0-12.979-5.953-20.346-16.98 2.83 9.124 7.856 17.468 15.857 24.347 0 0-8.49-4.342-16.199-13.808-6.099-3.367-19.907-12.832-24.542-29.666l-4.489 2.293c2.244 4.782 5.27 9.758 9.319 14.882 0 0-5.953-5.465-11.222-13.955l-8.783 4.538c2.537 4.977 6.050 10.1 10.734 15.077 0 0-4.635-3.708-9.758-9.954 1.366 5.709 1.025 12.442-16.882-7.27 0 0-80.995-35.13-104.513-108.075 0 0-13.808-32.886 4.489-129.543-26.006 12.393-8.197-51.085-8.197-51.085 2.586-16.98 9.758-24.542 14.101-27.568zM387.019 943.020c-4.050-5.465-7.416-12.198-8.978-20.688l-2.879 1.122c2.196 7.026 5.904 13.759 11.856 19.566zM715.731 346.781c0 0-2.44 2.781-6.050 6.441 0.439-0.049 0.878-0.049 1.317-0.098-1.61 1.317-3.611 2.586-5.367 3.903-8.978 8.246-23.957 19.663-47.816 28.885 0 0-0.829 0.244-2.098 0.634-37.619 18.053-74.603 29.861-74.603 29.861-68.797 24.347-69.236 48.548-69.236 48.548-0.586-1.122-1.122-2.049-1.708-3.123-0.342 0.781-0.927 1.561-1.122 2.342 0 0-4.684-12.1-13.32-28.543-38.302-64.991-73.627-88.411-104.318-89.241-30.69 0.829-66.016 24.25-104.318 89.241-8.587 16.443-13.271 28.543-13.271 28.543-0.195-0.781-0.781-1.561-1.122-2.342-0.586 1.073-1.122 2-1.708 3.123 0 0-0.439-24.201-69.236-48.548 0 0-36.984-11.808-74.603-29.861-1.269-0.39-2.098-0.634-2.098-0.634-23.859-9.222-38.839-20.639-47.816-28.885-1.708-1.317-3.757-2.537-5.318-3.903 0.439 0.049 0.878 0.049 1.317 0.098-3.611-3.659-6.050-6.441-6.050-6.441-60.112-89.143-67.187-287.922-67.187-287.922 0.829-45.23 20.346-50.012 20.346-50.012 138.374-61.722 355.402-72.798 355.402-72.798 5.367-0.146 10.49 0.049 15.711 0.146 5.221-0.098 10.295-0.244 15.711-0.146 0 0 217.027 11.076 355.402 72.798 0 0 19.517 4.782 20.346 50.012-0.049 0-7.075 198.779-67.187 287.922z" />
<glyph unicode="&#xe910;" glyph-name="list" horiz-adv-x="831" d="M664.944 960h-609.559c-30.572 0-55.384-24.812-55.384-55.384v-913.231c0-30.572 24.812-55.384 55.384-55.384h720.328c30.572 0 55.384 24.812 55.384 55.384v802.463l-166.153 166.153zM182.159 747.103h466.779c27.692 0 50.178-22.486 50.178-50.178s-22.486-50.178-50.178-50.178h-466.779c-27.692 0-50.178 22.486-50.178 50.178s22.486 50.178 50.178 50.178zM182.159 587.873h300.626c27.692 0 50.178-22.486 50.178-50.178s-22.486-50.178-50.178-50.178h-300.626c-27.692 0-50.178 22.486-50.178 50.178s22.486 50.178 50.178 50.178zM319.235 329.118h-134.473c-27.692 0-50.178 22.486-50.178 50.178s22.486 50.178 50.178 50.178h134.473c27.692 0 50.178-22.486 50.178-50.178s-22.431-50.178-50.178-50.178z" />
<glyph unicode="&#xe911;" glyph-name="house_edit" horiz-adv-x="995" d="M726.469 524.175l144.293-144.293-365.258-365.329-144.257 144.328 365.222 365.293zM980.268 558.962l-64.355 64.355c-24.883 24.883-65.242 24.883-90.196 0l-61.657-61.657 144.293-144.293 71.916 71.916c19.31 19.275 19.31 50.405 0 69.679v0zM285.746-43.98c-2.627-11.82 8.058-22.398 19.878-19.523l160.799 38.975-144.222 144.293-36.455-163.745zM693.032 585.939c0 0 7.099-6.212 15.938-13.95 8.768-7.667 27.19-1.526 41.14 13.808l9.726 10.755c13.95 15.37 12.637 38.869-2.982 52.535l-343.854 300.867c-15.654 13.666-40.643 13.382-55.978-0.568l-345.025-316.415c-15.299-13.95-16.080-37.484-1.668-52.393l8.626-9.016c14.376-14.979 37.555-16.719 51.789-4.011l25.806 23.108v-338.103c0-20.73 16.825-37.555 37.555-37.555h134.46c20.765 0 37.555 16.79 37.555 37.555v236.619h171.519v-173.897l215.392 215.428v55.232z" />
<glyph unicode="&#xe912;" glyph-name="dots" horiz-adv-x="226" d="M225.65 847.175c0-62.312-50.513-112.825-112.825-112.825s-112.825 50.513-112.825 112.825c0 62.312 50.513 112.825 112.825 112.825s112.825-50.513 112.825-112.825zM225.65 448c0-62.312-50.513-112.825-112.825-112.825s-112.825 50.513-112.825 112.825c0 62.312 50.513 112.825 112.825 112.825s112.825-50.513 112.825-112.825zM225.65 48.825c0-62.312-50.513-112.825-112.825-112.825s-112.825 50.513-112.825 112.825c0 62.312 50.513 112.825 112.825 112.825s112.825-50.513 112.825-112.825z" />
<glyph unicode="&#xe913;" glyph-name="addOwn" horiz-adv-x="946" d="M690.238 447.891c-141.341 0-255.946-114.605-255.946-255.946s114.605-255.946 255.946-255.946 255.946 114.605 255.946 255.946-114.605 255.946-255.946 255.946zM857.608 142.55h-117.92v-117.92h-98.792v117.92h-117.92v98.792h117.92v117.92h98.792v-117.92h117.92v-98.792zM652.417 960h-598.076c-29.996 0-54.341-24.345-54.341-54.341v-896.027c0-29.996 24.345-54.341 54.341-54.341h432.988c-66.676 57.221-109.062 141.938-109.062 236.655 0 172.315 139.656 311.971 311.971 311.971 44.56 0 86.837-9.51 125.201-26.301v319.361l-163.023 163.023zM449.019 692.643l-4.782-5.217c-6.793-7.499-15.813-10.542-20.106-6.793-4.347 3.804-7.771 6.847-7.771 6.847v-162.968c0-10.162-8.205-18.313-18.367-18.313h-69.665c-10.162 0-17.389 8.205-17.28 18.313v115.692h-83.902v-115.692c0-10.162-8.205-18.367-18.367-18.367h-65.752c-10.162 0-18.367 8.205-18.367 18.367v165.305l-12.607-11.303c-6.956-6.195-18.259-5.38-25.323 1.956l-4.184 4.402c-7.064 7.282-6.684 18.802 0.815 25.595l168.674 154.709c7.499 6.847 19.726 6.956 27.388 0.272l168.131-147.101c7.662-6.684 8.26-18.204 1.467-25.703z" />
<glyph unicode="&#xe914;" glyph-name="add1" horiz-adv-x="1057" d="M801.42 447.891c-141.341 0-255.946-114.605-255.946-255.946s114.605-255.946 255.946-255.946c141.341 0 255.946 114.605 255.946 255.946s-114.605 255.946-255.946 255.946zM968.79 142.55h-117.92v-117.92h-98.792v117.92h-117.92v98.792h117.92v117.92h98.792v-117.92h117.92v-98.792zM801.42 503.373c71.187 0 136.613-24.182 189.052-64.34 7.282 3.913 14.563 9.021 21.193 16.248l13.096 14.509c18.802 20.704 17.063 52.439-4.021 70.861l-463.745 405.764c-21.139 18.422-54.83 18.041-75.534-0.815l-465.321-426.685c-20.595-18.802-21.682-50.537-2.282-70.643l11.629-12.118c19.4-20.215 50.646-22.551 69.882-5.434l34.778 31.137v-455.975c0-27.986 22.66-50.646 50.646-50.646h181.336c27.986 0 50.646 22.66 50.646 50.646v319.035h107.323c50.048 105.421 157.045 178.456 281.323 178.456z" />
<glyph unicode="&#xe915;" glyph-name="arrow-down" horiz-adv-x="1408" d="M0 694.272l244.48 265.728 459.52-494.976 459.52 494.976 244.48-265.728-704-758.272-704 758.272z" />
<glyph unicode="&#xe916;" glyph-name="arrow-up" horiz-adv-x="1408" d="M1408 201.728l-244.48-265.728-459.52 494.976-459.52-494.976-244.48 265.728 704 758.272 704-758.272z" />
<glyph unicode="&#xe917;" glyph-name="bind" horiz-adv-x="1062" d="M1000.789 783.815l-133.632 132.324c-59.164 58.197-155.193 58.539-214.357 0.626l-148.309-144.612c-59.392-57.913-59.733-152.348-0.626-210.603l84.651 81.465c-8.476 25.884 2.105 55.524 23.040 76.117l94.379 91.989c29.753 28.956 77.767 28.786 107.236-0.341l80.27-79.36c29.468-29.298 29.298-76.174-0.284-105.301l-94.436-91.989c-19.854-19.513-52.622-30.208-78.052-23.324l-83.058-81.408c59.051-58.425 155.079-58.596 214.414-0.683l148.139 144.498c59.506 58.084 59.847 152.348 0.626 210.603v0zM457.956 254.521c7.054-25.259-4.153-58.084-24.633-78.052l-88.121-86.073c-30.094-29.412-79.076-29.241-109.113 0.512l-81.92 80.668c-29.924 29.639-29.753 77.881 0.455 107.179l88.178 86.073c21.447 20.935 52.281 31.516 79.36 22.699l84.992 84.196c-60.245 59.278-158.208 59.62-218.681 0.569l-142.905-139.548c-60.473-59.164-60.757-155.193-0.626-214.699l135.964-134.542c60.188-59.164 158.037-59.506 218.567-0.512l143.019 139.548c60.359 59.164 60.644 155.022 0.683 214.528l-85.22-82.546zM364.942 292.921c19.968-20.139 52.793-20.48 73.273-0.341l244.338 243.086c20.309 20.139 20.48 52.964 0.171 73.273-19.968 20.139-52.793 20.139-72.932 0.171l-244.508-243.029c-20.309-20.025-20.309-52.85-0.341-73.159v0z" />
<glyph unicode="&#xe918;" glyph-name="search" horiz-adv-x="993" d="M690.103 291.547c65.463 70.875 106.277 165.742 106.277 270.263 0 219.209-178.395 398.19-398.19 398.19s-398.19-178.981-398.19-398.19c0-219.209 178.395-398.19 398.19-398.19 89.454 0 171.739 29.403 238.446 79.287l296.082-296.082c7.241-7.241 16.238-10.825 25.234-10.825s18.651 3.584 25.234 10.825c13.824 13.824 13.824 36.645 0 51.054l-293.083 293.669zM72.046 561.81c0 179.566 145.92 326.144 326.144 326.144 179.566 0 326.144-145.92 326.144-326.144s-145.993-326.144-326.144-326.144-326.144 146.578-326.144 326.144v0z" />
<glyph unicode="&#xe919;" glyph-name="close" d="M933.909 944.574l-421.962-421.962-421.855 421.855c-20.568 20.568-53.991 20.568-74.666 0s-20.568-53.991 0-74.666l421.962-421.855-421.962-421.855c-20.568-20.568-20.568-53.991 0-74.666 20.568-20.568 53.991-20.568 74.666 0l421.855 421.855 421.962-421.962c20.675-20.675 53.991-20.568 74.558 0s20.675 53.991 0 74.558l-421.855 422.069 421.962 421.962c20.675 20.675 20.568 53.991 0 74.558s-53.991 20.675-74.666 0.107z" />
<glyph unicode="&#xe91a;" glyph-name="error3" d="M469.333 703.957h85.333v-341.333h-85.333v341.333zM469.333 277.333h85.333v-85.291h-85.333v85.291zM512-64c-282.325 0-512 229.632-512 512s229.675 512 512 512c282.325 0 512-229.675 512-512s-229.675-512-512-512zM512 874.667c-235.264 0-426.667-191.403-426.667-426.667s191.403-426.667 426.667-426.667c235.264 0 426.667 191.403 426.667 426.667s-191.403 426.667-426.667 426.667z" />
<glyph unicode="&#xe91b;" glyph-name="error2" horiz-adv-x="1184" d="M545.856 520.096h92.32v-279.584h-92.32v279.584zM592 96.32c-27.52 0-49.824 22.272-49.824 49.76s22.304 49.76 49.824 49.76c27.52 0 49.824-22.272 49.824-49.76s-22.304-49.76-49.824-49.76zM592 960l-592-1024h1184l-592 1024zM592 776.128l432.512-748.128h-865.024l432.512 748.128z" />
</font>
</defs>
</svg>
